:SAMPLES-PER-SECOND 30
:FULLY-SPECIFIED
:DEGREES
533
root  20.521 37.9088 11.3333 -159.456 84.2588 -154.033
RightUpLeg  20.8696 -8.37455 3.29659
RightLeg  9.68676 1.2179 2.43952
RightFoot  -19.8827 -0.260931 -1.68948
RightToes  2.96859e-009 0 -3.6325e-017
Spine  5.73861 -0.591232 9.56291
Spine1  9.98839 0.816396 -4.16901
HEad  -9.26936 0.627513 -2.85544
LeftShoulder1  -0.184146 4.00359 -30.7381
LeftArm  1.8906 21.1099 -38.0777
LeftForeArm  19.8572 -28.8034 -5.15331
LeftHand  -0.0404947 1.718 1.00901
RightShoulder  -0.890192 -6.04058 28.5116
RightArm  0.705138 -6.52347 41.2597
RightForeArm  7.11905 53.0406 14.4685
RightHand  -0.43958 0.940866 -8.16091
LeftUpLeg  -18.7865 3.30816 -0.642558
LeftLeg  -1.12002 14.9042 -2.67383
LeftFoot  -2.15788 0.365818 -4.24244
LeftToes  3.24686e-010 -7.02549e-012 1.39809e-011
534
root  22.1443 37.5921 11.3716 -159.459 85.2962 -154.184
RightUpLeg  22.9079 -9.45507 1.76571
RightLeg  11.1758 3.88493 2.63109
RightFoot  -20.9061 -0.204915 -0.753485
RightToes  2.96859e-009 0 -3.6325e-017
Spine  4.80278 0.0763215 8.77488
Spine1  10.8863 1.65267 -4.73608
HEad  -9.01216 0.885165 -1.8989
LeftShoulder1  -0.237297 4.14068 -31.0724
LeftArm  0.109133 22.0772 -36.9122
LeftForeArm  20.9223 -32.1461 -5.89188
LeftHand  -0.0400377 1.89654 1.00527
RightShoulder  -0.910746 -6.08194 28.7472
RightArm  0.608338 -8.66155 43.018
RightForeArm  7.92945 56.8052 16.7247
RightHand  -0.578445 2.84095 -8.37072
LeftUpLeg  -20.3923 3.93827 -1.86093
LeftLeg  5.7654 12.4436 -1.32399
LeftFoot  -1.65625 0.0559553 -0.897568
LeftToes  3.24686e-010 -7.02549e-012 1.39809e-011
535
root  23.8074 37.4565 11.3694 -175.58 87.283 -170.761
RightUpLeg  24.6367 -10.3891 -1.26668
RightLeg  12.6413 7.87077 2.7474
RightFoot  -20.6615 0.0294752 2.04197
RightToes  2.96859e-009 0 -3.6325e-017
Spine  3.31497 0.917573 7.1448
Spine1  12.1152 2.83697 -6.03503
HEad  -8.15499 1.27967 -0.756743
LeftShoulder1  -0.393873 4.54503 -31.7063
LeftArm  -1.29143 23.2366 -35.3186
LeftForeArm  21.3288 -35.4672 -6.73074
LeftHand  -0.050995 1.27054 1.26576
RightShoulder  -0.851527 -5.92158 28.6223
RightArm  2.37825 -10.0589 45.0161
RightForeArm  8.28713 58.6722 18.0815
RightHand  -0.505518 2.19492 -7.92204
LeftUpLeg  -21.4784 4.77979 -3.87146
LeftLeg  10.1016 9.53977 -0.20875
LeftFoot  3.92856 -0.819289 5.85051
LeftToes  3.24686e-010 -7.02549e-012 1.39809e-011
536
root  25.4609 37.3134 11.36 137.227 87.8488 141.88
RightUpLeg  24.7352 -10.9672 -5.13118
RightLeg  17.8705 11.4107 3.90386
RightFoot  -19.7966 0.341545 6.43601
RightToes  2.96859e-009 0 -3.6325e-017
Spine  3.55237 1.30862 4.51376
Spine1  11.0074 3.31055 -7.00094
HEad  -6.62524 1.16049 0.600292
LeftShoulder1  -0.420836 4.60994 -31.9015
LeftArm  -2.69826 24.6638 -33.9495
LeftForeArm  20.5224 -38.2498 -7.55182
LeftHand  -0.0638238 1.5333 1.70195
RightShoulder  -0.877178 -5.96242 29.0854
RightArm  5.74689 -10.9203 46.4393
RightForeArm  7.91769 59.4296 18.7367
RightHand  -0.428361 1.42529 -7.45734
LeftUpLeg  -21.9801 5.53287 -6.5106
LeftLeg  14.5585 9.90564 1.93666
LeftFoot  8.45287 -1.71149 9.62926
LeftToes  3.24686e-010 -7.02549e-012 1.39809e-011
537
root  26.9627 37.216 11.3347 124.815 85.8012 129.976
RightUpLeg  22.7746 -10.0156 -7.37536
RightLeg  27.0715 11.3854 6.02145
RightFoot  -16.0352 0.40545 13.2475
RightToes  2.96859e-009 0 -3.6325e-017
Spine  4.80661 1.08608 1.4423
Spine1  10.4277 2.72915 -6.76926
HEad  -6.22582 1.15779 0.852593
LeftShoulder1  -0.355525 4.44475 -31.6737
LeftArm  -4.21673 23.8653 -34.5581
LeftForeArm  19.2996 -38.9178 -7.83182
LeftHand  -0.0911099 1.57033 2.54481
RightShoulder  -0.875983 -5.94532 29.2654
RightArm  8.35578 -11.3628 47.6801
RightForeArm  8.3503 60.0786 19.25
RightHand  -0.419974 1.99471 -6.77488
LeftUpLeg  -21.8433 7.25959 -9.40029
LeftLeg  19.8832 7.07306 3.24046
LeftFoot  5.45569 -1.67173 11.038
LeftToes  3.24686e-010 -7.02549e-012 1.39809e-011
538
root  28.2691 37.2207 11.2521 117.898 84.6044 123.549
RightUpLeg  17.1377 -7.1561 -8.38703
RightLeg  40.0686 9.81425 8.48973
RightFoot  -6.16444 -0.830578 17.5563
RightToes  2.96859e-009 0 -3.6325e-017
Spine  6.3379 1.0922 0.557191
Spine1  10.647 2.89488 -8.28274
HEad  -7.09825 0.757857 0.658774
LeftShoulder1  -0.266384 4.2038 -31.8526
LeftArm  -4.82109 21.3285 -35.1126
LeftForeArm  19.045 -39.6378 -8.06665
LeftHand  -0.115571 1.0589 3.00153
RightShoulder  -0.730575 -5.57623 28.6123
RightArm  9.91978 -11.2468 49.4807
RightForeArm  9.57129 61.3736 20.2941
RightHand  -0.399695 1.79468 -6.62644
LeftUpLeg  -20.4489 7.42138 -10.5388
LeftLeg  22.7034 7.25608 3.67159
LeftFoot  2.58221 -1.35614 10.9408
LeftToes  3.24686e-010 -7.02549e-012 1.39809e-011
539
root  29.453 37.2394 11.196 100.326 83.4652 105.798
RightUpLeg  8.56087 -2.31473 -9.07506
RightLeg  53.6551 7.59012 10.5466
RightFoot  4.79999 -2.39712 17.2319
RightToes  2.96859e-009 0 -3.6325e-017
Spine  7.26754 1.51804 -0.627146
Spine1  11.0498 3.59939 -10.2396
HEad  -8.25787 0.684195 0.231071
LeftShoulder1  -0.15878 3.92792 -31.3585
LeftArm  -5.0815 18.432 -35.996
LeftForeArm  20.2043 -41.2626 -8.50715
LeftHand  -0.135351 0.460213 3.15963
RightShoulder  -0.679571 -5.44455 28.286
RightArm  11.9401 -9.41033 50.5736
RightForeArm  10.2099 62.7179 21.5638
RightHand  -0.420699 1.75785 -6.99637
LeftUpLeg  -19.3395 8.86356 -12.1184
LeftLeg  24.2106 7.40463 3.97281
LeftFoot  -0.273738 -1.03868 10.6928
LeftToes  3.24686e-010 -7.02549e-012 1.39809e-011
540
root  30.5976 37.3164 11.1394 96.3971 82.2531 102.237
RightUpLeg  1.4747 0.739928 -9.79045
RightLeg  63.4628 5.24875 10.7605
RightFoot  7.34967 -2.23059 13.696
RightToes  2.96859e-009 0 -3.6325e-017
Spine  8.69084 1.38744 -2.6375
Spine1  11.155 3.01833 -9.9034
HEad  -8.56305 1.41396 -1.1224
LeftShoulder1  -0.109185 3.78901 -32.0364
LeftArm  -4.53775 15.3793 -35.7738
LeftForeArm  20.3717 -43.7995 -9.34552
LeftHand  -0.168502 0.526038 4.01103
RightShoulder  -0.554739 -5.1387 27.1774
RightArm  12.3865 -7.32048 51.9229
RightForeArm  12.9707 64.6923 23.5428
RightHand  -0.366054 1.71792 -6.15019
LeftUpLeg  -17.2224 9.23964 -13.1071
LeftLeg  24.9158 7.52503 4.06741
LeftFoot  -2.70882 -0.747976 10.1063
LeftToes  3.24686e-010 -7.02549e-012 1.39809e-011
541
root  31.8192 37.5469 11.0458 104.819 82.0104 110.842
RightUpLeg  -4.85753 2.14092 -9.62707
RightLeg  68.8785 3.47026 9.18724
RightFoot  4.08352 -1.55196 11.6596
RightToes  2.96859e-009 0 -3.6325e-017
Spine  9.13177 0.683109 -3.16729
Spine1  11.513 2.01118 -9.18151
HEad  -8.41149 1.62309 -2.03278
LeftShoulder1  0.0421914 3.39361 -32.1647
LeftArm  -4.43628 11.7329 -36.1804
LeftForeArm  21.2809 -46.0121 -10.0922
LeftHand  -0.177575 -0.116188 3.7476
RightShoulder  -0.564626 -5.16041 27.3064
RightArm  11.242 -5.55047 51.8072
RightForeArm  17.0758 67.846 27.501
RightHand  -0.384472 2.02447 -6.14751
LeftUpLeg  -14.5174 7.70085 -12.8271
LeftLeg  24.5633 7.95016 3.96726
LeftFoot  -4.63088 -0.538148 9.6241
LeftToes  3.24686e-010 -7.02549e-012 1.39809e-011
542
root  33.0269 37.7983 10.9747 109.698 82.0086 115.922
RightUpLeg  -10.9284 3.84662 -9.27653
RightLeg  70.6487 2.48437 7.10581
RightFoot  3.4026 -1.09639 8.62479
RightToes  2.96859e-009 0 -3.6325e-017
Spine  9.67137 0.465614 -3.88444
Spine1  11.6564 1.28467 -7.50004
HEad  -9.02581 1.49004 -3.02765
LeftShoulder1  0.0648545 3.33414 -32.9817
LeftArm  -3.50588 7.05051 -36.0745
LeftForeArm  21.0524 -48.1246 -10.958
LeftHand  -0.250042 -1.07259 4.63227
RightShoulder  -0.533275 -5.09454 26.7279
RightArm  9.5925 -3.64762 51.5897
RightForeArm  20.2341 70.504 32.2789
RightHand  -0.540272 2.79448 -7.89606
LeftUpLeg  -11.6106 7.02501 -12.1265
LeftLeg  23.709 8.13705 3.45674
LeftFoot  -6.33194 -0.358749 9.06801
LeftToes  3.24686e-010 -7.02549e-012 1.39809e-011
543
root  34.2602 38.0159 10.9016 117.195 81.6574 123.481
RightUpLeg  -16.1363 4.8376 -9.45058
RightLeg  68.8917 2.17191 5.52521
RightFoot  1.96407 -0.730903 6.39749
RightToes  2.96859e-009 0 -3.6325e-017
Spine  10.0399 -0.109032 -3.95503
Spine1  11.2335 0.697547 -7.4162
HEad  -8.56827 1.96277 -2.58096
LeftShoulder1  0.244248 2.85378 -31.3527
LeftArm  -4.00744 3.4452 -37.4754
LeftForeArm  21.9665 -50.3968 -11.8783
LeftHand  -0.229635 -0.920867 4.3375
RightShoulder  -0.558362 -5.13879 27.3766
RightArm  7.77907 -1.37482 50.4162
RightForeArm  25.7699 72.968 38.0965
RightHand  -0.526223 2.3575 -8.08999
LeftUpLeg  -8.69149 6.07415 -11.5633
LeftLeg  22.5136 8.30447 2.78552
LeftFoot  -7.80952 -0.227233 8.88063
LeftToes  3.24686e-010 -7.02549e-012 1.39809e-011
544
root  35.5115 38.1758 10.7896 126.467 81.1118 133.182
RightUpLeg  -19.4146 5.26858 -9.56243
RightLeg  63.2846 2.26857 4.35724
RightFoot  0.145328 -0.63136 6.27726
RightToes  2.96859e-009 0 -3.6325e-017
Spine  10.3676 -0.621862 -4.11082
Spine1  11.3018 -0.150333 -5.97028
HEad  -7.74077 2.248 -3.00795
LeftShoulder1  0.322589 2.64449 -31.4509
LeftArm  -4.35553 -1.48901 -37.967
LeftForeArm  22.0033 -51.984 -12.6366
LeftHand  -0.262744 -0.994498 4.90164
RightShoulder  -0.538393 -5.10809 26.7747
RightArm  5.23632 1.12223 49.8057
RightForeArm  31.1303 74.8277 44.2795
RightHand  -0.585981 2.01574 -9.34616
LeftUpLeg  -5.43742 5.53096 -10.9341
LeftLeg  21.383 7.75486 2.22173
LeftFoot  -9.46936 -0.0855069 8.71235
LeftToes  3.24686e-010 -7.02549e-012 1.39809e-011
545
root  36.7969 38.2654 10.6789 134.902 80.2064 142.334
RightUpLeg  -20.8287 5.12298 -9.78282
RightLeg  54.4734 2.74414 3.72619
RightFoot  -1.0709 -0.535922 5.8794
RightToes  2.96859e-009 0 -3.6325e-017
Spine  10.5226 -1.16023 -3.97811
Spine1  11.6674 -0.856963 -5.0561
HEad  -7.21289 1.78015 -2.78755
LeftShoulder1  0.429236 2.35038 -31.1107
LeftArm  -4.39454 -6.43771 -38.1622
LeftForeArm  21.8851 -53.577 -13.4884
LeftHand  -0.244017 -0.522881 4.89434
RightShoulder  -0.509495 -5.04181 26.2931
RightArm  2.9008 4.26433 49.0634
RightForeArm  34.4193 75.7806 48.6177
RightHand  -0.640906 2.28539 -9.87644
LeftUpLeg  -2.02014 5.37101 -10.295
LeftLeg  20.6057 6.52063 1.76951
LeftFoot  -11.2307 0.0593779 8.54621
LeftToes  3.24686e-010 -7.02549e-012 1.39809e-011
546
root  38.1003 38.2886 10.5419 139.233 78.95 147.075
RightUpLeg  -21.1004 4.20671 -10.572
RightLeg  42.9616 3.44471 3.15433
RightFoot  -1.75971 -0.513359 5.97658
RightToes  2.96859e-009 0 -3.6325e-017
Spine  10.8359 -1.62927 -4.35541
Spine1  11.407 -1.58159 -3.88449
HEad  -7.44935 1.57858 -2.81668
LeftShoulder1  0.466825 2.23142 -30.5833
LeftArm  -4.86465 -10.7416 -38.8784
LeftForeArm  21.2718 -54.979 -14.3228
LeftHand  -0.276736 -0.306039 5.71716
RightShoulder  -0.449236 -4.89824 25.3454
RightArm  0.339918 7.41277 48.5093
RightForeArm  37.929 76.4293 51.8875
RightHand  -0.571948 1.62034 -9.62649
LeftUpLeg  0.907636 4.96259 -10.2701
LeftLeg  20.2865 5.47038 1.65654
LeftFoot  -12.8821 0.190091 8.33909
LeftToes  3.24686e-010 -7.02549e-012 1.39809e-011
